<svg xmlns="http://www.w3.org/2000/svg" fill="none" viewBox="0 0 100 100"><g clip-path="url(#a)"><mask id="b" width="100" height="100" x="0" y="0" maskUnits="userSpaceOnUse" style="mask-type:luminance"><path fill="#fff" d="M100 0H0v100h100z"/></mask><g mask="url(#b)"><path fill="#fff" d="m79 46.3-2-.8c-9.8 21.9-48.5 8.6-50.9 15.1-.4 4.4 21.2.8 36.6 1.6 4.7.2 7.1 3.8 5.1 9.6h3.9c4.5-14.1 19-6.9 19.6-11.6-1-3.1-16.6 0-12.3-13.9"/><path fill="#999" d="M68.9 69.3c.6-2.1.4-4.1-.6-5.4-1-1.2-2.5-2.1-4.4-2.3l-36.1-.4c-.2 0-.4-.2-.6-.2q-.3-.3 0-.6c.2-.4.4-.6.8-.6l36.3-.4c4.4-.2 8.9-3.7 10.6-7.9l2.1-5.4c0-.2.2-.4 0-.6C74.7 34.9 65.1 27 53.9 27c-10.4 0-19.3 6.6-22.4 16-2.1-1.5-4.6-2.3-7.5-2.1-5 .4-8.9 4.6-9.5 9.5-.2 1.2 0 2.5.2 3.7C6.6 54.4 0 61 0 69.3c0 .8 0 1.5.2 2.3 0 .4.4.6.6.6h66.6c.4 0 .8-.2.8-.6z"/><path fill="#B8B8B8" d="M80.3 46.1h-1c-.2 0-.4.2-.6.4l-1.5 5c-.6 2.1-.4 4.1.6 5.4 1 1.2 2.5 2.1 4.4 2.3l7.7.4c.2 0 .4.2.6.2q.3.3 0 .6c-.3.4-.5.6-.9.6l-7.9.4c-4.4.2-8.9 3.7-10.6 7.9l-.4 1.9c-.2.2 0 .6.4.6h27.4q.6 0 .6-.6c.4-1.7.8-3.5.8-5.4.1-10.8-8.8-19.7-19.6-19.7"/></g></g><defs><clipPath id="a"><path fill="#fff" d="M0 0h100v100H0z"/></clipPath></defs></svg>