<svg xmlns="http://www.w3.org/2000/svg" fill="none" viewBox="0 0 100 100"><path fill="#333" d="M62.9 64.3H56l-.6-.6v-16c0-2.9-1.1-5.1-4.6-5.1-1.8 0-3.8 0-6 .1l-.3.3v20.8l-.5.5h-6.9l-.6-.6V36.3l.6-.6h15.4c6 0 10.9 4.9 10.9 10.9v17.1z"/><path fill="#858585" d="M27 79.5h-.9l-4.7-4.7v-.9l7.2-7.2h5l.7.7v5zm-5.6-53.3v-.9l4.7-4.7h.9l7.2 7.2v5l-.7.7h-5zM28 54H.6l-.6-.6v-6.9l.6-.5H28l.6.6v6.9zm71.4 0H72l-.6-.6v-6.9l.6-.5h27.4l.6.6v6.9zM46 27.1V6.6l.6-.6h6.9l.6.6v20.6l-.6.6h-6.9zm0 66.3V72.8l.6-.6h6.9l.6.6v20.6l-.6.6h-6.9z"/></svg>